<?xml version="1.0" encoding="UTF-8" standalone="no"?>
<!-- Created with Inkscape (http://www.inkscape.org/) -->

<svg
   xmlns:dc="http://purl.org/dc/elements/1.1/"
   xmlns:cc="http://creativecommons.org/ns#"
   xmlns:rdf="http://www.w3.org/1999/02/22-rdf-syntax-ns#"
   xmlns:svg="http://www.w3.org/2000/svg"
   xmlns="http://www.w3.org/2000/svg"
   xmlns:sodipodi="http://sodipodi.sourceforge.net/DTD/sodipodi-0.dtd"
   xmlns:inkscape="http://www.inkscape.org/namespaces/inkscape"
   width="210mm"
   height="297mm"
   viewBox="0 0 744.09448819 1052.3622047"
   id="svg3346"
   version="1.1"
   inkscape:version="0.91 r13725"
   sodipodi:docname="dc.svg">
  <defs
     id="defs3348">
    <filter
       inkscape:collect="always"
       style="color-interpolation-filters:sRGB"
       id="filter5034"
       x="-0.4834243"
       width="1.9668486"
       y="-0.39046433"
       height="1.7809287">
      <feGaussianBlur
         inkscape:collect="always"
         stdDeviation="162.41048"
         id="feGaussianBlur5036" />
    </filter>
  </defs>
  <sodipodi:namedview
     id="base"
     pagecolor="#ffffff"
     bordercolor="#666666"
     borderopacity="1.0"
     inkscape:pageopacity="0.0"
     inkscape:pageshadow="2"
     inkscape:zoom="0.38802817"
     inkscape:cx="148.63525"
     inkscape:cy="437.97624"
     inkscape:document-units="px"
     inkscape:current-layer="layer1"
     showgrid="false"
     inkscape:window-width="1280"
     inkscape:window-height="752"
     inkscape:window-x="53"
     inkscape:window-y="0"
     inkscape:window-maximized="0" />
  <metadata
     id="metadata3351">
    <rdf:RDF>
      <cc:Work
         rdf:about="">
        <dc:format>image/svg+xml</dc:format>
        <dc:type
           rdf:resource="http://purl.org/dc/dcmitype/StillImage" />
        <dc:title />
      </cc:Work>
    </rdf:RDF>
  </metadata>
  <g
     inkscape:label="Layer 1"
     inkscape:groupmode="layer"
     id="layer1"
     style="opacity:1">
    <path
       style="fill:#000000;fill-opacity:1"
       d="m 297.23055,869.59254 c 0,-0.81664 -0.4754,-5.52261 -0.0546,-5.78264 0.42075,-0.26003 -4.659,0.0854 -4.659,-3.02058 0,-1.55299 1.86386,-2.05189 3.4735,-2.9607 7.68037,-4.3364 -5.03773,-1.99048 -5.01336,-8.5833 0,0 5.43386,-0.7098 5.43386,-3.84056 0,-3.28491 -3.55077,-7.75865 -3.10929,-7.75865 0.47101,0 0.24843,-7.93334 0.24843,-7.93334 0,0 6.7017,-7.14477 7.60464,-8.04776 0.63111,-0.63114 -2.98507,-5.32074 -2.98507,-6.94881 0,-1.62815 -1.72203,-1.88156 -1.30128,-2.14159 0.42075,-0.26002 -2.07614,-2.92825 -2.07614,-4.98236 0,-1.02704 -0.55965,-3.04706 0.48299,-4.58452 1.04267,-1.53747 3.68763,-2.5924 3.898,-2.72241 0.42335,-0.26163 -4.03929,-2.25474 -1.55956,-5.43436 l 5.68228,-7.28609 -2.6775,-2.60024 c -1.89406,-1.83936 -2.6775,-3.27573 -2.6775,-4.9087 0,-1.26974 -0.34425,-2.30854 -0.765,-2.30854 -0.42075,0 -0.765,-1.7009 -0.765,-3.77986 0,-2.07889 -0.34425,-3.99261 -0.765,-4.25264 -0.42075,-0.26002 -0.765,-1.84028 -0.765,-3.51165 0,-2.04538 -0.38953,-3.18837 -1.19148,-3.49605 -0.6553,-0.25146 -1.01416,-0.91923 -0.79752,-1.48387 0.21673,-0.56465 -0.10778,-1.5284 -0.72101,-2.14162 -1.46842,-1.46842 -1.42359,-4.00217 0.081,-4.57952 0.65774,-0.25245 0.99641,-0.78191 0.75253,-1.17649 -0.24396,-0.39467 -0.11544,-0.9203 0.28557,-1.16816 2.21483,-1.36889 3.1209,-5.48252 3.1209,-14.17002 0,0 1.03116,-6.13423 0,-8.92472 -0.49603,-1.34228 0.73679,-8.67507 -3.56651,-11.78484 -5.64601,-4.08008 -5.35044,7.63051 -7.71299,8.07372 -4.07446,0.76434 -2.4905,-2.37506 -2.4905,-5.33148 0,-1.54293 -0.44654,-2.71545 -1.13458,-2.97952 -0.64237,-0.24649 -0.9398,-0.94302 -0.68567,-1.60543 0.26232,-0.68361 -0.0612,-1.36568 -0.77785,-1.64077 -0.6748,-0.25896 -1.2269,-0.95036 -1.2269,-1.53643 0,-0.58614 -0.25819,-1.06832 -0.57375,-1.07161 -0.84456,-0.009 -2.48625,-3.85797 -2.48625,-5.82946 0,-0.93789 -0.51638,-2.22171 -1.1475,-2.85283 -0.63113,-0.63113 -1.1475,-2.05732 -1.1475,-3.16925 0,-1.112 0.51637,-2.53819 1.1475,-3.16931 0.63112,-0.63113 1.1475,-1.81137 1.1475,-2.62288 0,-0.81144 0.34425,-1.47531 0.765,-1.47531 0.42075,0 0.765,-0.51637 0.765,-1.1475 0,-0.89252 1.01997,-1.1475 4.59,-1.1475 2.54997,0 4.59,0.33997 4.59,0.765 0,0.42075 0.82382,0.765 1.83064,0.765 1.00689,0 2.02878,0.51638 2.27098,1.1475 0.34379,0.8959 1.87127,1.1475 6.96685,1.1475 3.97341,0 6.52653,-0.30867 6.52653,-0.78902 0,-0.43398 0.60243,-1.01714 1.33875,-1.29598 2.06136,-0.78053 3.25125,-2.23732 3.25125,-3.98037 0,-0.87157 0.34425,-1.58463 0.765,-1.58463 0.42075,0 0.765,-0.64634 0.765,-1.43636 0,-0.78994 0.51637,-1.86484 1.1475,-2.38864 0.63112,-0.52379 1.1475,-1.92267 1.1475,-3.10857 0,-1.18591 0.34425,-2.3689 0.765,-2.62893 0.46948,-0.29016 0.765,-6.49538 0.765,-16.065 0,-9.56961 -0.29552,-15.77483 -0.765,-16.065 -0.42075,-0.26002 -0.765,-3.56153 -0.765,-7.33665 0,-5.39555 -0.24549,-6.95806 -1.1475,-7.30422 -0.63113,-0.2422 -1.1475,-1.26416 -1.1475,-2.27098 0,-1.00689 -0.34425,-1.83065 -0.765,-1.83065 -0.42075,0 -0.76539,-1.46306 -0.76592,-3.25125 -6.9e-4,-2.31466 -0.52219,-3.85736 -1.8103,-5.355 -0.99511,-1.15706 -2.06397,-2.10375 -2.37517,-2.10375 -0.31128,0 -1.2429,-0.86062 -2.07032,-1.9125 -0.82735,-1.05187 -1.99573,-1.9125 -2.59633,-1.9125 -0.60061,0 -1.09196,-0.34425 -1.09196,-0.765 0,-0.42075 -0.6885,-0.765 -1.53,-0.765 -0.8415,0 -1.53,-0.34425 -1.53,-0.765 0,-0.42075 -0.88098,-0.765 -1.95764,-0.765 -1.07674,0 -1.75116,-0.33415 -1.49871,-0.74258 0.25237,-0.40843 -0.46558,-0.97461 -1.59556,-1.25827 -2.17337,-0.54545 -4.89309,-2.83502 -4.89309,-4.11915 0,-0.42075 1.04667,-0.765 2.32598,-0.765 1.27931,0 3.34481,-0.75329 4.59,-1.67389 2.16625,-1.60153 6.39658,-0.89397 2.26402,-7.53829 -2.74378,-4.41141 -0.21826,-6.09995 -1.9125,-7.92804 -1.05188,-1.135 -1.9125,-2.56227 -1.9125,-3.17171 0,-0.60945 -0.34425,-1.10808 -0.765,-1.10808 -0.42075,0 -0.765,-0.51638 -0.765,-1.1475 0,-0.63113 -0.34425,-1.1475 -0.765,-1.1475 -0.42075,0 -0.765,-0.69931 -0.765,-1.55402 0,-0.8547 -0.51638,-1.75215 -1.1475,-1.99434 -0.63113,-0.24219 -1.1475,-1.032 -1.1475,-1.75514 0,-2.10226 -4.30361,-10.84037 -7.01125,-10.84037 -1.34028,0 0,0 -5.27805,-2.83127 -3.53167,-1.89449 -2.20309,3.34785 -2.20309,3.34785 -0.67862,1.03125 1.90657,7.88845 1.35479,7.88845 -0.55179,0 -0.71348,0.61297 -0.71348,1.2441 0,0.63112 -0.36221,2.08814 -0.9543,2.30665 l -2.59645,0.95819 c -0.93624,0.34552 -3.43977,-0.46099 -4.62811,-1.46309 -4.98,-4.19969 -5.51006,-6.42146 -5.51006,-10.62065 0,-2.08036 -0.38601,-3.2425 -1.17792,-3.54639 -0.84031,-0.32246 -1.13068,-1.36435 -1.01312,-3.63532 0.15788,-3.04998 -0.42858,-4.26642 -3.73771,-7.75288 -0.52595,-0.55412 -0.95626,-1.22072 -0.95626,-1.48133 0,-0.77208 -3.9377,-3.40225 -4.90682,-3.42851 -0.49086,-0.0133 -1.41729,-1.01898 -1.58646,-1.52649 -0.18687,-0.56062 -1.32759,-1.04435 -3.20576,-0.93354 -2.50678,0.14792 -4.12522,0.53081 -6.07324,-1.28891 -1.94126,-1.81341 -1.82272,-3.62176 -1.82272,-6.16881 0,-2.75696 -0.47935,-3.63638 -3.825,-7.01743 -2.10375,-2.126 -3.825,-4.20445 -3.825,-4.61876 0,-0.41431 -0.34425,-0.54053 -0.765,-0.28049 -0.44507,0.27506 -0.765,-0.48701 -0.765,-1.82222 0,-1.26225 -0.34425,-2.50775 -0.765,-2.76778 -0.42075,-0.26004 -0.765,-1.28443 -0.765,-2.2764 0,-0.99198 -0.39723,-1.93601 -0.88272,-2.09785 -0.52922,-0.1764 -1.0281,-2.8059 -1.24579,-6.56624 -0.19969,-3.44961 -0.6631,-6.27201 -1.02979,-6.27201 -0.36669,0 -0.6667,-1.377 -0.6667,-3.06 0,-1.683 -0.34425,-3.06 -0.765,-3.06 -0.42075,0 -0.765,-1.20488 -0.765,-2.6775 0,-1.47263 -0.34425,-2.6775 -0.765,-2.6775 -0.42075,0 -0.765,-0.63823 -0.765,-1.4183 0,-0.78006 -0.86063,-2.34692 -1.9125,-3.48191 -1.05188,-1.135 -1.9125,-2.56227 -1.9125,-3.17171 0,-0.60945 -0.34425,-1.10808 -0.765,-1.10808 -0.42075,0 -0.765,-0.61965 -0.765,-1.377 0,-0.75735 -0.35341,-1.73041 -0.78534,-2.16234 -0.43192,-0.43192 -0.99661,-2.56931 -1.25485,-4.74973 -0.7486,-6.32078 -1.78034,-7.01093 -10.4808,-7.01093 -2.68861,1.36421 -7.01843,0.0276 -8.31944,0.0155 -0.84147,-0.008 -2.11176,-1.80372 -2.11441,-2.11929 -0.003,-0.31556 -1.06332,-0.6932 -2.357,-1.42952 -1.92955,-1.09821 -4.55506,-0.1796 -13.28995,-0.1796 -6.58867,0 -7.55694,0.0948 -10.35821,-1.63437 -0.35804,-0.221 -1.89338,-1.53776 -4.2075,-1.53776 -2.78423,0.74582 -4.5379,0.80487 -7.0162,0.11213 -2.3828,-1.25574 -6.16192,-2.98122 -8.16019,-4.21721 -1.7621,-0.94273 -4.0253,-2.40935 -5.34066,-3.64426 -2.87295,-2.03993 -4.57404,-3.51495 -6.64045,-5.25566 -0.68464,-1.02033 -1.91258,-0.88413 -2.57165,-1.9125 -1.23164,-1.3815 -2.87762,-1.90042 -3.7931,-3.41531 -0.7368,-1.24729 -2.36015,-2.87064 -3.60744,-3.60745 -3.32362,-2.83381 -5.82007,-6.58907 -8.38781,-9.19183 -3.366,-3.39778 -6.12,-6.71325 -6.12,-7.3677 0,-0.65445 -0.34425,-1.40267 -0.765,-1.66271 -0.42075,-0.26004 -0.765,-1.63276 -0.765,-3.0505 0,-1.41774 -1.1475,-3.72521 -1.1475,-3.72521 -0.28891,-0.84449 -1.1475,-2.03272 -1.1475,-3.11465 -1.20996,-1.88083 -2.168907,-3.94793 -3.362215,-6.01572 -1.007719,-1.08735 -1.646946,-2.16226 -1.420506,-2.3887 0.22644,-0.22644 -0.153941,-0.62877 -0.845286,-0.89406 -0.691346,-0.26529 -1.256995,-1.30614 -1.256995,-2.313 0,-1.00686 -0.34425,-1.83066 -0.765,-1.83066 -0.42075,0 -0.765,-0.51375 -0.765,-1.14167 0,-1.01902 -1.621394,-3.29438 -4.39875,-6.17294 -0.525937,-0.54511 -0.95625,-1.21673 -0.95625,-1.49252 0,-0.27578 -1.807312,-2.39125 -4.01625,-4.70105 -8.096079,-8.46574 -9.75375,-10.35062 -9.75375,-11.0906 0,-0.41553 -0.430312,-1.23534 -0.95625,-1.82181 -2.057069,-2.29383 -2.86875,-3.36803 -2.86875,-3.79661 0,-0.24572 -0.6885,-1.18579 -1.53,-2.08903 -0.8415,-0.90325 -1.043903,-2.44099 -1.53,-3.02802 l -1.1475,-1.38575 c -0.508755,-0.61438 -1.1475,-0.80248 -1.1475,-2.63234 0,-1.4478 -0.34425,-2.84512 -0.765,-3.10516 -0.42075,-0.26004 -0.765,-1.82948 -0.765,-3.48765 0,-1.65817 -0.34425,-3.01485 -0.765,-3.01485 -0.42075,0 -0.765,-0.55698 -0.765,-1.23775 0,-0.68077 -1.069125,-2.45543 -2.375837,-3.94369 -1.954935,-2.22655 -2.302046,-3.16063 -1.959326,-5.27256 0.390563,-2.40677 2.331445,-4.03216 3.235262,-4.846 0,0 2.996535,-3.79873 4.158968,-4.78125 4.186111,-3.85843 8.795381,-7.68109 12.241805,-11.0925 43.09935,-42.76265 48.06669,-47.84604 48.83163,-49.97241 0.14025,-0.38986 0.58621,-0.70884 0.99102,-0.70884 0.85291,0 4.49148,-3.48881 4.49148,-4.30662 0,-0.69478 87.60259,-88.25838 88.29767,-88.25838 0.82147,0 4.26733,-3.67834 4.26733,-4.55523 0,-0.43988 0.36086,-0.79977 0.80193,-0.79977 1.06796,0 11.43807,-10.34149 11.43807,-11.40651 0,-0.45842 0.51637,-0.83349 1.1475,-0.83349 0.63112,0 1.1475,-0.48658 1.1475,-1.0813 0,-0.59472 1.54912,-2.40203 3.4425,-4.01625 1.89337,-1.61421 3.4425,-3.21098 3.4425,-3.54838 0,-0.83737 19.12465,-19.65907 19.97551,-19.65907 0.37372,0 0.6795,-0.35398 0.6795,-0.78663 0,-0.43263 3.32486,-4.04726 7.38859,-8.03249 4.93635,-4.84102 7.54891,-8.63465 10.01006,-8.7549 2.46116,-0.12026 4.77093,3.43287 9.10171,7.82108 7.99506,8.10108 14.04464,14.51258 14.04464,14.88498 0,0.70969 3.84397,4.04796 4.66114,4.04796 0.49809,0 3.62656,2.754 6.95209,6.12 3.32553,3.366 6.18021,6.12 6.34361,6.12 0.29277,0 5.04204,4.89452 9.46435,9.75375 1.24443,1.36744 2.41266,2.48625 2.59595,2.48625 0.48547,0 8.23286,7.62063 8.23286,8.09817 0,0.62812 19.2044,19.6307 21.98678,21.75577 1.36362,1.04146 2.48243,2.17987 2.48625,2.52981 0.009,0.80181 7.7223,8.16125 8.55393,8.16125 1.06189,0 3.69304,2.58832 3.69304,3.6329 0,1.33692 4.49674,6.2175 6.885,7.47276 1.05187,0.55286 7.31393,6.28406 13.91565,12.73602 6.60179,6.45196 12.97041,12.65315 14.15249,13.78044 1.18216,1.12729 3.9396,3.88129 6.12773,6.12 2.18813,2.23871 4.94213,4.94565 6.12,6.01542 1.17787,1.06978 2.82576,2.87709 3.6619,4.01625 0.83622,1.13916 1.94203,2.07121 2.45741,2.07121 1.20296,0 33.88981,32.8442 33.88981,34.05295 0,0.9084 6.35891,6.43468 6.96976,6.05716 0.37416,-0.23123 0.68024,-0.0451 0.68024,0.41375 0,0.45879 0.4896,1.02205 1.08806,1.2517 0.59846,0.22963 10.66777,10.06161 22.37625,21.84882 11.70848,11.78721 22.62083,22.69058 24.24951,24.2297 1.62876,1.53913 3.52214,3.43877 4.2075,4.22142 2.97256,3.39435 6.89594,7.3745 7.26941,7.3745 0.22308,0 1.57575,1.20488 3.00599,2.6775 1.43017,1.47263 2.84381,2.6775 3.14132,2.6775 0.71734,0 30.28153,29.66085 30.30578,30.40489 0.0237,0.72976 12.575,13.20011 13.28568,13.20011 0.60718,0 0.092,-0.49894 26.3756,25.54536 10.9945,10.89431 19.98991,19.91 19.98991,20.03485 0,0.55796 11.67481,11.86674 14.27168,13.82415 1.58929,1.19798 7.46242,6.75829 13.05144,12.35625 8.832,8.84607 12.07438,10.77399 12.07438,12.91695 0,1.38364 -2.49995,2.71604 -3.25125,3.38567 -117.37138,131.282 -252.37751,256.80009 -361.56799,373.73133 -2.34197,2.52702 -9.59363,8.76447 -9.59363,6.4306 z M 425.36,647.88864 c 0.60726,-3.60789 2.44267,-13.32709 3.49539,-17.38044 0.43712,-1.683 0.92889,-4.35274 1.56514,-6.87724 0.63617,-2.5245 1.12602,-8.71382 1.56077,-9.97607 0.43467,-1.26225 1.23662,-5.56537 1.78199,-9.5625 0.54537,-3.99712 1.33837,-8.99142 1.76218,-11.09846 0.42381,-2.10704 0.99587,-6.92654 1.27127,-10.71001 0.27533,-3.78347 0.98854,-8.65328 1.58493,-10.82178 0.59632,-2.16852 1.08423,-6.09126 1.08423,-8.71722 l 0,-4.77448 4.16168,3.93596 c 2.28896,2.16478 4.49568,3.93598 4.9038,3.93598 0.40821,0 2.40822,1.29093 4.44458,2.86875 6.2629,4.85263 9.57229,6.31125 14.31942,6.31125 3.83112,0 4.51381,-0.25283 6.39838,-2.36945 3.29914,-3.70546 4.54089,-4.07098 14.048,-4.13509 7.01421,-0.0473 9.29751,-0.33448 10.8744,-1.36768 1.29423,-0.84802 3.55183,-1.31191 6.42157,-1.31953 2.43416,-0.006 7.13722,-0.69496 10.45128,-1.53 3.31413,-0.83504 8.13363,-1.52345 10.71,-1.52978 5.78531,-0.0142 10.8044,-1.62514 10.8044,-3.46773 0,-1.537 -0.37171,-1.75295 -8.03227,-4.66631 -6.84499,-2.60318 -13.84803,-7.10724 -16.24309,-10.44687 -1.50001,-2.09153 -3.4464,-7.36173 -4.92905,-13.34631 -0.41264,-1.66562 -0.24763,-1.72125 5.10485,-1.72125 8.15742,0 11.10298,-1.74351 26.17126,-15.49125 1.72936,-1.57782 3.55251,-2.86875 4.05144,-2.86875 0.49901,0 1.5303,-0.6885 2.29186,-1.53 0.76156,-0.8415 1.82797,-1.53 2.36982,-1.53 1.99803,0 7.90429,-3.98326 7.94598,-5.3589 0.008,-0.21251 -2.13986,-1.21413 -4.76955,-2.22581 -9.79827,-3.76951 -13.21736,-11.87648 -8.79987,-20.86535 0.68445,-1.39285 2.06986,-4.29293 3.07859,-6.44464 1.00881,-2.15171 2.61576,-5.17695 3.57117,-6.72275 1.25391,-2.02893 1.64322,-3.60027 1.39972,-5.6503 -0.31349,-2.63973 0.46612,-5.21071 2.7169,-8.95975 3.2371,-5.39178 6.718,-10.3275 7.28357,-10.3275 0.89581,0 3.97333,-3.00796 5.90771,-5.77433 3.13367,-4.48131 3.13512,-4.44724 -0.16807,-3.91904 -1.66694,0.26656 -4.13146,1.03369 -5.47656,1.70474 -1.34518,0.67105 -3.72111,1.37828 -5.27995,1.57162 -1.55884,0.19335 -3.36417,0.80838 -4.01182,1.36677 -0.64772,0.55837 -2.31642,1.22999 -3.70826,1.49248 -1.39192,0.26249 -3.05166,0.99825 -3.68845,1.63501 -0.83691,0.83691 -2.82101,1.15775 -7.15963,1.15775 -4.37909,0 -7.00159,0.42957 -9.69913,1.58874 -2.40784,1.03468 -4.63093,1.45532 -6.37467,1.20616 -1.47262,-0.21042 -4.22662,-0.61464 -6.12,-0.89825 -3.07935,-0.46127 -4.16887,-0.15238 -10.3275,2.92806 -3.78676,1.89405 -10.74971,4.72671 -15.4732,6.2948 -10.27066,3.40964 -12.24811,3.10712 -14.38483,-2.20077 -1.97845,-4.91449 -1.5323,-16.59875 0.8086,-21.17694 0.543,-1.06187 1.14452,-5.53712 1.33684,-9.945 0.19224,-4.40786 0.79407,-11.28468 1.3373,-15.2818 1.38633,-10.19965 1.36751,-11.00301 -0.26538,-11.3298 -0.7676,-0.15362 -1.98518,0.2542 -2.70573,0.90626 -0.77938,0.70533 -1.99581,1.00623 -3.00308,0.74283 -1.00093,-0.26175 -1.69303,-0.0935 -1.69303,0.41148 0,1.44757 -9.25933,1.00773 -14.14072,-0.67172 -5.41971,-1.86465 -6.02376,-2.34842 -8.55507,-6.85147 -2.00154,-3.56071 -6.03967,-6.92258 -8.31501,-6.92258 -0.65851,0 -1.71498,-1.11882 -2.34771,-2.48625 -0.63273,-1.36744 -1.98655,-3.86325 -3.00836,-5.54625 -1.02189,-1.683 -1.86492,-3.57638 -1.87341,-4.2075 -0.009,-0.63113 -1.0456,-3.213 -2.30472,-5.7375 -1.25911,-2.5245 -2.29056,-5.51171 -2.29209,-6.63823 0,-1.31487 -0.74695,-2.6335 -2.08103,-3.68286 -1.89483,-1.4905 -2.1586,-1.52456 -2.99084,-0.38633 -1.04392,1.42764 -2.19081,9.86461 -1.4942,10.99178 0.25444,0.41166 0.0711,1.72097 -0.40736,2.90955 -1.09097,2.71003 -1.81841,4.58757 -2.92766,7.55671 -1.05501,2.82364 -3.39407,5.42969 -7.17333,7.99188 -1.58913,1.07736 -4.06153,4.02651 -5.66191,6.75365 -2.30304,3.92441 -3.71523,5.35461 -7.45753,7.55271 -5.59865,3.28842 -9.29008,3.93146 -12.72692,2.21695 -2.19127,-1.09316 -2.65593,-1.11238 -3.61861,-0.14966 -1.86629,1.86627 0.72782,9.34965 7.7161,22.25885 5.30803,9.80539 8.03816,17.86664 6.40274,18.9055 -0.59387,0.37726 -0.27677,1.61084 1.02816,3.99962 l 1.88688,3.45411 -2.65249,2.75312 c -2.44226,2.535 -2.89483,2.71156 -5.71241,2.22844 -1.683,-0.28858 -3.89362,-0.63554 -4.91244,-0.77103 -1.01883,-0.13549 -2.15478,-0.78654 -2.52427,-1.44681 -0.3695,-0.66025 -1.47316,-1.20045 -2.45259,-1.20045 -0.97951,0 -2.18163,-0.48286 -2.67138,-1.07303 -0.48983,-0.59017 -2.77902,-1.96717 -5.0871,-3.06 -3.38627,-1.60333 -5.33725,-1.98788 -10.10435,-1.99169 -3.67659,-0.003 -6.71464,-0.42551 -8.0439,-1.1189 -1.17489,-0.6128 -3.41251,-1.33183 -4.9725,-1.59785 -4.23221,-0.72166 -7.86343,-2.01453 -10.96719,-3.90478 -1.52664,-0.92975 -3.98037,-2.19382 -5.45285,-2.80905 -1.47239,-0.61523 -2.91159,-1.49797 -3.19815,-1.96166 -0.28657,-0.46367 -1.17428,-0.84304 -1.97271,-0.84304 -0.79835,0 -2.92957,-1.37271 -4.73604,-3.05047 -2.85506,-2.65158 -3.75378,-3.05171 -6.87314,-3.06 -1.9737,-0.005 -3.76594,0.27738 -3.98267,0.62804 -0.21672,0.35067 0.9255,3.36286 2.53812,6.69375 7.10907,14.68313 8.42334,20.53121 5.79732,25.79527 -1.66433,3.33618 -1.41005,6.81682 0.72828,9.96782 2.39223,3.52506 3.76013,10.77336 2.82155,14.95058 -0.83752,3.72766 -3.94143,7.69739 -7.25564,9.27967 -4.29601,2.05096 -10.44585,6.44637 -10.44585,7.46583 0,0.54589 0.60244,1.21244 1.33875,1.48123 0.73632,0.26879 2.15378,1.11392 3.14989,1.87807 0.99618,0.76415 2.115,1.2016 2.48625,0.97213 0.37133,-0.22947 0.67511,-0.0526 0.67511,0.39293 0,0.44557 0.34777,0.81015 0.77288,0.81015 0.8591,0 7.86558,4.79089 10.23578,6.99902 0.83592,0.77878 1.78146,1.41598 2.10115,1.41598 0.31977,0 1.54576,0.8952 2.72455,1.98932 2.95052,2.73873 15.90526,11.18791 22.19792,14.47763 6.65321,3.4782 8.88471,5.88917 8.22613,8.88769 -0.26867,1.22326 -0.59181,3.3342 -0.71803,4.69098 -0.28236,3.03436 -1.10971,5.14438 -2.01723,5.14438 -0.37569,0 -0.59708,0.38319 -0.4919,0.85153 0.10519,0.46834 -0.91234,1.41503 -2.26126,2.10375 -1.34885,0.68872 -2.55372,1.63184 -2.6775,2.09582 -0.34303,1.286 -9.11796,8.7189 -10.29315,8.7189 -1.49122,0 -10.20434,5.58305 -10.20434,6.53857 0,2.15783 2.06803,2.64143 11.29576,2.64143 5.37834,0 10.13373,0.36064 11.02167,0.83586 1.12952,0.6045 1.79323,0.6045 2.39773,0 1.16357,-1.16358 6.90413,-1.02387 12.54057,0.30519 5.17905,1.22122 20.74091,1.63572 28.30034,0.7538 4.6655,-0.5443 4.77375,-0.51427 7.02492,1.9505 2.21337,2.42334 2.42964,2.48835 6.76833,2.03487 5.2811,-0.55198 13.03415,-3.76968 13.81468,-5.73339 1.32077,-3.32327 7.05639,-8.87715 6.98479,-6.4275 -0.20663,7.07176 -3.38892,31.53693 -5.15767,37.26318 -0.64979,2.10375 -1.03881,9.79648 -1.33671,11.90023 -0.29789,2.10375 -0.72233,5.46198 -1.41542,8.40723 -0.69309,2.94525 -0.40476,5.57644 -1.24817,9.15281 -0.84341,3.57638 -1.52472,6.59036 -1.51393,7.64223 0.0107,1.05188 0.104,3.72349 -0.73727,5.93694 -1.99956,5.26083 -1.93621,6.02705 0.57413,6.9439 3.11684,1.1384 4.68786,1.12463 5.21035,-1.97959 z"
       id="path3422"
       inkscape:connector-curvature="0"
       sodipodi:nodetypes="scsscsscssssssscssssssccscccssssscccscsssssssssscsscssssscscssssscscsssssccssssssssssssssssssscssssscsssssssssscssssssssssssscscssscccccccccssssccsssssssssssssssssssscscccssssssssssssscssssscssscsssscsscsscscsccscscssscsccccssccssccscssssssccssssssssssscscccccscscscssssssssccccscssssssccsccccccsssscscsccsssscscccscssscsccscsssccsscscsscssccssscssssscccssscssss"
       inkscape:export-xdpi="5.7209177"
       inkscape:export-ydpi="5.7209177" />
    <path
       style="fill:#000000;fill-opacity:0.29050279;opacity:0"
       d="m -227.39059,232.64051 c -0.0463,-0.0463 -0.0842,-0.2098 -0.0842,-0.36334 0,-0.48447 -0.2533,-0.55388 -2.15517,-0.59059 -1.77929,-0.0343 -1.82325,-0.0418 -1.86251,-0.31817 -0.0722,-0.50808 -0.48126,-0.66402 -1.74197,-0.66402 -1.15714,0 -1.15782,-1.3e-4 -1.24475,-0.34654 -0.14485,-0.57716 -0.29539,-0.66361 -1.15541,-0.66361 -0.79781,0 -0.80529,-0.003 -0.80529,-0.35356 0,-0.54468 -0.20877,-0.6566 -1.22481,-0.6566 -0.81178,0 -0.92177,-0.0278 -0.92177,-0.23297 0,-0.38491 -0.41053,-0.63759 -1.18349,-0.72844 -0.63222,-0.0743 -0.74767,-0.12994 -0.8549,-0.41199 -0.16426,-0.43202 -0.29265,-0.49863 -1.1499,-0.59657 -0.69763,-0.0797 -0.72605,-0.0973 -0.72605,-0.44857 0,-0.44008 -0.34957,-0.61191 -1.2448,-0.61191 -0.56459,0 -0.60357,-0.0223 -0.71782,-0.41038 -0.089,-0.30221 -0.22361,-0.44071 -0.51081,-0.52545 -0.27986,-0.0826 -0.4225,-0.22438 -0.50508,-0.5021 -0.0839,-0.2821 -0.22284,-0.41745 -0.51259,-0.49927 -0.29909,-0.0845 -0.41569,-0.20317 -0.47095,-0.47947 -0.0744,-0.37218 -0.12161,-0.40669 -0.74147,-0.54252 -0.23214,-0.0509 -0.34724,-0.15662 -0.34724,-0.31906 0,-0.38357 -0.48736,-0.6361 -1.22765,-0.6361 -0.64567,0 -0.66639,-0.011 -0.66639,-0.35355 0,-0.44869 -0.20791,-0.6566 -0.6566,-0.6566 -0.30531,0 -0.35355,-0.0496 -0.35355,-0.36335 0,-0.50742 -0.20436,-0.62769 -1.14126,-0.67165 -0.8026,-0.0377 -0.81661,-0.0445 -0.85887,-0.41668 -0.0498,-0.43872 -0.20082,-0.564 -0.68309,-0.56669 -0.29567,-0.002 -0.34724,-0.0544 -0.34724,-0.35549 0,-0.52658 -0.21554,-0.6566 -1.08851,-0.6566 -0.78372,0 -0.78566,-8.8e-4 -0.87449,-0.41037 -0.11667,-0.5378 -0.22758,-0.59555 -1.1481,-0.59785 l -0.77513,-0.002 -0.0806,-0.42975 c -0.0809,-0.43123 -0.26477,-0.5804 -0.71542,-0.5804 -0.17228,0 -0.24221,-0.0885 -0.24221,-0.30665 0,-0.3923 -0.31121,-0.7035 -0.7035,-0.7035 -0.24051,0 -0.30665,-0.0661 -0.30665,-0.30666 0,-0.41276 -0.31684,-0.7035 -0.76664,-0.7035 -0.27525,0 -0.36979,-0.0596 -0.36979,-0.23296 0,-0.37858 -0.39449,-0.62192 -1.161,-0.71615 -0.69187,-0.085 -0.72053,-0.1034 -0.75762,-0.48509 -0.0331,-0.34099 -0.10413,-0.4129 -0.5056,-0.51209 -0.39764,-0.0983 -0.4727,-0.17271 -0.50507,-0.50107 -0.0326,-0.33069 -0.10553,-0.40153 -0.51154,-0.49692 -0.4142,-0.0973 -0.47351,-0.15763 -0.47351,-0.48149 0,-0.37367 -0.0409,-0.40746 -0.65494,-0.54156 -0.27138,-0.0593 -0.34718,-0.15613 -0.37881,-0.48406 -0.0349,-0.36226 -0.091,-0.41731 -0.48148,-0.4731 -0.39283,-0.0561 -0.44895,-0.11224 -0.50507,-0.50508 -0.0561,-0.39283 -0.11224,-0.44895 -0.50508,-0.50507 -0.3541,-0.0506 -0.45062,-0.12588 -0.48561,-0.37881 -0.0596,-0.43083 -0.24796,-0.63135 -0.5931,-0.63135 -0.22494,0 -0.3102,-0.0923 -0.37921,-0.41037 -0.0995,-0.45864 -0.24617,-0.595 -0.64303,-0.59784 -0.20662,-0.001 -0.28899,-0.10289 -0.35068,-0.43169 -0.0802,-0.42726 -0.26521,-0.5804 -0.70137,-0.5804 -0.15955,0 -0.2524,-0.12923 -0.30878,-0.42975 -0.0809,-0.43123 -0.26477,-0.5804 -0.71542,-0.5804 -0.17228,0 -0.24222,-0.0885 -0.24222,-0.30666 0,-0.39229 -0.3112,-0.7035 -0.70349,-0.7035 -0.24052,0 -0.30666,-0.0661 -0.30666,-0.30665 0,-0.39229 -0.3112,-0.7035 -0.7035,-0.7035 -0.21811,0 -0.30665,-0.0699 -0.30665,-0.24221 0,-0.44922 -0.14871,-0.63444 -0.57335,-0.7141 -0.36129,-0.0678 -0.42831,-0.13707 -0.46132,-0.47695 -0.0332,-0.34207 -0.10389,-0.41377 -0.50567,-0.51303 -0.39913,-0.0986 -0.47258,-0.17207 -0.50508,-0.50508 -0.0326,-0.33409 -0.10557,-0.40637 -0.51153,-0.50665 -0.47,-0.11611 -0.47351,-0.12175 -0.47351,-0.76109 0,-0.75964 -0.25946,-1.20538 -0.70164,-1.20538 -0.25191,0 -0.30887,-0.0637 -0.31044,-0.34724 -0.003,-0.48227 -0.12797,-0.63328 -0.56669,-0.68309 -0.32516,-0.0369 -0.38728,-0.10514 -0.44153,-0.4849 -0.0558,-0.39051 -0.11085,-0.44654 -0.47311,-0.48148 -0.32792,-0.0316 -0.42479,-0.10743 -0.48405,-0.37881 -0.13415,-0.6143 -0.16791,-0.65494 -0.54408,-0.65494 -0.31948,0 -0.38448,-0.0586 -0.45493,-0.41037 -0.19861,-0.99165 -0.33241,-1.23431 -0.78475,-1.42331 -0.24566,-0.10264 -0.60385,-0.18662 -0.79598,-0.18662 -0.29738,0 -0.36133,-0.0639 -0.42996,-0.42975 -0.0809,-0.43124 -0.26477,-0.58041 -0.71543,-0.58041 -0.17228,0 -0.24221,-0.0885 -0.24221,-0.30665 0,-0.39229 -0.3112,-0.7035 -0.7035,-0.7035 -0.24051,0 -0.30665,-0.0661 -0.30665,-0.30665 0,-0.3923 -0.31121,-0.7035 -0.7035,-0.7035 -0.21811,0 -0.30665,-0.0699 -0.30665,-0.24221 0,-0.45065 -0.14917,-0.63453 -0.5804,-0.71543 -0.3288,-0.0617 -0.43021,-0.14406 -0.43169,-0.35067 -0.003,-0.39686 -0.1392,-0.54353 -0.59784,-0.64303 -0.30864,-0.067 -0.41086,-0.15698 -0.41231,-0.36311 -0.003,-0.40096 -0.13803,-0.54729 -0.59785,-0.64704 -0.30863,-0.067 -0.41085,-0.15698 -0.4123,-0.36311 -0.003,-0.40805 -0.14607,-0.56216 -0.56669,-0.60992 -0.32516,-0.0369 -0.38728,-0.10514 -0.44153,-0.4849 -0.0561,-0.39284 -0.11224,-0.44896 -0.50508,-0.50508 -0.39284,-0.0561 -0.44896,-0.11223 -0.50507,-0.50507 -0.0561,-0.39284 -0.11224,-0.44896 -0.50508,-0.50508 l -0.44194,-0.0631 -0.0383,-0.81591 c -0.0422,-0.89901 -0.16734,-1.14126 -0.58961,-1.14126 -0.27311,0 -0.28339,-0.0487 -0.35319,-1.67307 -0.0395,-0.92018 -0.11205,-1.77536 -0.16113,-1.90038 -0.0491,-0.12502 -0.24845,-0.25916 -0.44305,-0.29808 l -0.35382,-0.0708 -0.0406,-3.40004 c -0.0436,-3.65229 -0.0406,-3.63664 -0.70352,-3.64115 -0.27513,-0.002 -0.28411,-0.041 -0.28411,-1.23653 0,-1.36327 -0.16558,-1.79586 -0.68739,-1.79586 -0.27562,0 -0.29745,-0.0565 -0.34462,-0.8913 -0.053,-0.93825 -0.16871,-1.12343 -0.70419,-1.12707 -0.2624,-0.002 -0.2841,-0.059 -0.2841,-0.74922 0,-0.97577 -0.069,-1.12457 -0.56476,-1.21757 -0.37833,-0.071 -0.42077,-0.12628 -0.49117,-0.63987 -0.0994,-0.72486 -0.27427,-1.04099 -0.65638,-1.18627 -0.1694,-0.0644 -0.308,-0.2195 -0.308,-0.34466 0,-0.37423 -0.36877,-0.78884 -0.70164,-0.78884 -0.25371,0 -0.30851,-0.0628 -0.30851,-0.35355 0,-0.44869 -0.20791,-0.6566 -0.6566,-0.6566 -0.30304,0 -0.35355,-0.0505 -0.35355,-0.35355 0,-0.44869 -0.20791,-0.6566 -0.6566,-0.6566 -0.33408,0 -0.35355,-0.0308 -0.35355,-0.55999 0,-0.79619 -0.18743,-1.19822 -0.63062,-1.35272 -0.31943,-0.11135 -0.37954,-0.19892 -0.37954,-0.5529 0,-0.31154 -0.11941,-0.54572 -0.4605,-0.9031 -0.40628,-0.42569 -0.46987,-0.58106 -0.54013,-1.31962 -0.0841,-0.88378 -0.27208,-1.24632 -0.64629,-1.24632 -0.15398,0 -0.25529,-0.13207 -0.31479,-0.41037 -0.11594,-0.54219 -0.27858,-0.72605 -0.64226,-0.72605 -0.2722,0 -0.30139,-0.056 -0.3128,-0.59978 -0.0199,-0.9493 -0.13375,-1.20391 -0.59124,-1.32246 -0.38807,-0.10056 -0.40633,-0.13312 -0.40633,-0.7248 0,-0.92957 -0.16742,-1.2673 -0.62822,-1.2673 -0.37821,0 -0.38193,-0.007 -0.38193,-0.68626 0,-0.9959 -0.15924,-1.33405 -0.62822,-1.33405 -0.3018,0 -0.38193,-0.0547 -0.38193,-0.26084 0,-0.469 -0.23785,-0.74931 -0.63579,-0.74931 l -0.37436,0 0,-0.81173 c 0,-0.89805 -0.18076,-1.20858 -0.7035,-1.20858 -0.25574,0 -0.30666,-0.0622 -0.30666,-0.37436 0,-0.39794 -0.28031,-0.63579 -0.74931,-0.63579 -0.23066,0 -0.26084,-0.0771 -0.26084,-0.66638 0,-0.74337 -0.23287,-1.18857 -0.65413,-1.25058 -0.15021,-0.0221 -0.2965,-0.11123 -0.32509,-0.19804 -0.0415,-0.12608 8.97169,-0.15784 44.78406,-0.15784 l 44.83605,0 0,45.43892 0,45.43893 -0.53665,0.12904 -0.53664,0.12905 0.53664,0.0152 0.53665,0.0152 0,1.07328 0,1.07329 -1.11117,0 c -1.17553,0 -1.41422,0.0975 -1.41422,0.57768 0,0.20658 -0.0978,0.29419 -0.39459,0.35355 -0.52131,0.10427 -1.56156,0.10099 -1.6678,-0.005 l 0,0 z m -13.2793,-7.36569 c -0.0429,-0.0695 -0.14571,-0.1254 -0.22842,-0.12434 -0.0904,0.001 -0.0748,0.0508 0.039,0.12434 0.24258,0.15676 0.28629,0.15676 0.1894,0 z m -14.33407,-9.91518 c -0.0879,-0.10585 -0.18573,-0.16645 -0.21751,-0.13467 -0.0876,0.0876 0.0904,0.32713 0.24296,0.32713 0.0837,0 0.0742,-0.0725 -0.0255,-0.19246 z m -1.26016,-1.08602 c -0.9818,-0.8084 -1.77699,-1.50388 -2.33597,-2.04303 -0.56685,-0.54675 -0.6356,-0.5814 -0.6729,-0.33917 -0.0677,0.43955 0.0652,0.61074 0.50727,0.65325 0.34839,0.0335 0.42754,0.10025 0.48075,0.40541 0.0668,0.38334 0.23525,0.52375 0.75816,0.63206 0.17362,0.036 0.3725,0.19459 0.44194,0.35252 0.13068,0.29715 0.61608,0.60531 0.94702,0.60122 0.12857,-0.002 0.088,-0.0858 -0.12627,-0.26226 z m -3.15672,-2.69575 c 0,-0.0638 -0.6977,-0.44519 -0.81448,-0.44519 -0.19106,0 -0.0335,0.27511 0.2147,0.37487 0.31825,0.12793 0.59978,0.16093 0.59978,0.0703 z m -2.30067,-1.48691 c -0.4372,-0.53405 -1.98161,-1.90369 -2.40286,-2.13095 -0.1641,-0.0885 -0.22097,-0.0716 -0.22097,0.0656 0,0.27442 0.35782,0.58167 0.67739,0.58167 0.20631,0 0.31251,0.10698 0.40135,0.40431 0.0897,0.30005 0.21966,0.42942 0.50412,0.50167 0.28619,0.0727 0.41416,0.20121 0.50508,0.50723 0.11058,0.3722 0.34883,0.5361 0.86417,0.59451 0.0611,0.007 -0.0866,-0.2289 -0.32828,-0.52406 z m -3.25771,-2.68627 c -0.0878,-0.10585 -0.19259,-0.15958 -0.23277,-0.1194 -0.0402,0.0402 0.0105,0.12591 0.11269,0.19052 0.26731,0.16905 0.30224,0.14837 0.12008,-0.0711 z m -1.8915,-1.94013 c 0,-0.13333 -0.49477,-0.74773 -0.50087,-0.62198 -0.0103,0.21128 0.25432,0.73426 0.37148,0.73426 0.0712,0 0.12939,-0.0505 0.12939,-0.11228 z m -0.63134,-1.01575 c 0,-0.0648 -0.46878,-0.61332 -1.04172,-1.21886 -1.13157,-1.19594 -2.65033,-2.42373 -2.72416,-2.20225 -0.0741,0.22224 0.22135,0.49037 0.58682,0.5326 0.27069,0.0313 0.34656,0.11443 0.38096,0.41746 0.0477,0.41993 0.20189,0.5638 0.60741,0.56669 0.20925,0.001 0.29709,0.11059 0.38282,0.47544 0.097,0.41284 0.16333,0.47858 0.51762,0.51308 0.24088,0.0235 0.40636,0.11009 0.40636,0.21275 0,0.45179 0.25411,0.82097 0.56509,0.82097 0.17534,0 0.3188,-0.053 0.3188,-0.11788 z m -16.28871,-16.97201 c 0,-0.024 -0.11365,-0.14641 -0.25254,-0.27211 -0.29756,-0.26929 -0.34275,-0.17138 -0.0541,0.11725 0.18957,0.18957 0.30666,0.2487 0.30666,0.15486 z m -1.14348,-1.28977 c -0.16699,-0.17775 -0.3243,-0.2611 -0.34959,-0.18524 -0.0867,0.26012 0.0963,0.50842 0.37469,0.50842 l 0.27851,0 -0.30361,-0.32318 z m -0.62429,-0.66335 c 0,-0.0565 -0.17046,-0.26595 -0.37881,-0.46556 l -0.37881,-0.36292 0,0.34336 c 0,0.23807 0.0871,0.37839 0.28411,0.45757 0.36721,0.1476 0.47351,0.15378 0.47351,0.0276 z m -1.02632,-1.14276 c -0.0953,-0.12938 -0.64764,-0.79703 -1.22747,-1.48366 -0.57983,-0.68662 -1.37533,-1.69066 -1.76777,-2.23118 l -0.71353,-0.98278 -0.038,0.63175 c -0.0469,0.77904 0.12885,1.131 0.61312,1.22785 0.28257,0.0565 0.37194,0.14428 0.37194,0.36526 0,0.37798 0.31683,0.68771 0.7035,0.68771 0.25573,0 0.30665,0.0622 0.30665,0.37437 0,0.39794 0.28031,0.63579 0.74931,0.63579 0.20467,0 0.26084,0.0802 0.26084,0.37253 0,0.3883 0.25537,0.62691 0.67832,0.63378 0.20849,0.003 0.21593,-0.0239 0.0631,-0.23142 z m -4.02722,-5.98349 c -0.004,-0.25488 -0.462,-1.19132 -0.63397,-1.2976 -0.20998,-0.12977 -0.093,0.99531 0.13161,1.26596 0.19075,0.22983 0.50619,0.2497 0.50236,0.0316 z m -9.21487,-22.05154 c 0,-0.0617 -0.11175,-0.24642 -0.24833,-0.41037 -0.26505,-0.31815 -0.34764,-0.13567 -0.12603,0.27842 0.13353,0.24951 0.37436,0.3344 0.37436,0.13195 z m -2.1491,-3.99451 c -0.0879,-0.10585 -0.18573,-0.16645 -0.21751,-0.13467 -0.0876,0.0876 0.0904,0.32712 0.24295,0.32712 0.0837,0 0.0741,-0.0725 -0.0254,-0.19245 z m -5.12884,-9.08832 c -0.04,-0.10417 -0.095,-0.18941 -0.12231,-0.18941 -0.0273,0 -0.0496,0.0852 -0.0496,0.18941 0,0.10417 0.055,0.1894 0.12231,0.1894 0.0673,0 0.0896,-0.0852 0.0496,-0.1894 z"
       id="path3574"
       inkscape:connector-curvature="0" />
    <path
       style="opacity:0;fill:#000000;fill-opacity:0.29050281"
       d="m -227.45861,232.37816 c -0.16169,-0.64425 -0.225,-0.66362 -2.16872,-0.66362 l -1.8186,0 -0.0777,-0.38868 c -0.10243,-0.51217 -0.42223,-0.62147 -1.8182,-0.62147 -1.11039,0 -1.12821,-0.005 -1.12821,-0.30666 0,-0.52274 -0.31052,-0.70349 -1.20857,-0.70349 -0.80486,0 -0.81173,-0.003 -0.81173,-0.35356 0,-0.53515 -0.21259,-0.6566 -1.14932,-0.6566 -0.82243,0 -0.84992,-0.0104 -0.97534,-0.37023 -0.1373,-0.39384 -0.70131,-0.63779 -1.47789,-0.63922 -0.30665,-5e-4 -0.41036,-0.074 -0.5219,-0.3695 -0.14435,-0.38241 -0.72422,-0.63911 -1.44717,-0.64065 -0.26745,-6.3e-4 -0.34617,-0.0743 -0.40764,-0.38159 -0.0914,-0.45694 -0.46179,-0.62926 -1.35257,-0.62926 -0.53009,0 -0.62312,-0.0362 -0.62312,-0.24222 0,-0.44922 -0.14871,-0.63444 -0.57335,-0.7141 -0.36006,-0.0675 -0.42843,-0.13763 -0.46132,-0.47293 -0.0333,-0.33977 -0.10341,-0.40886 -0.51213,-0.50489 -0.33283,-0.0782 -0.47351,-0.17949 -0.47351,-0.34092 0,-0.44946 -0.14994,-0.62913 -0.52503,-0.62913 -0.30283,0 -0.40473,-0.079 -0.54969,-0.42591 -0.19397,-0.46423 -0.45001,-0.57981 -1.29042,-0.58252 -0.47959,-0.002 -0.54202,-0.0372 -0.61032,-0.34897 -0.13659,-0.62337 -0.16901,-0.66291 -0.54357,-0.66291 -0.3238,0 -0.38421,-0.0594 -0.48181,-0.47351 l -0.11158,-0.47351 -0.91111,-0.0371 c -0.818,-0.0333 -0.91111,-0.0632 -0.91111,-0.2924 0,-0.45667 -0.24001,-0.74378 -0.62174,-0.74378 -0.30987,0 -0.3716,-0.0602 -0.44093,-0.42975 -0.096,-0.51197 -0.23996,-0.58041 -1.2205,-0.58041 -0.73428,0 -0.74729,-0.006 -0.74729,-0.35355 0,-0.53679 -0.21198,-0.6566 -1.16168,-0.6566 -0.85622,0 -0.85863,-0.001 -0.85863,-0.35355 0,-0.44869 -0.20791,-0.6566 -0.6566,-0.6566 -0.30772,0 -0.35355,-0.0485 -0.35355,-0.37437 0,-0.39794 -0.28031,-0.63578 -0.74931,-0.63578 -0.20496,0 -0.26084,-0.0802 -0.26084,-0.37437 0,-0.39436 -0.27985,-0.63579 -0.73696,-0.63579 -0.16192,0 -0.29396,-0.13042 -0.37899,-0.37436 -0.13439,-0.3855 -0.24448,-0.43796 -1.28251,-0.61105 -0.50025,-0.0834 -0.57517,-0.13861 -0.63179,-0.46546 -0.049,-0.28307 -0.15788,-0.39769 -0.45997,-0.48433 -0.28949,-0.083 -0.42567,-0.21788 -0.50725,-0.50232 -0.0823,-0.28702 -0.21341,-0.41524 -0.50065,-0.48967 -0.29347,-0.0761 -0.41814,-0.20193 -0.50706,-0.51198 -0.0897,-0.31264 -0.20368,-0.42638 -0.47585,-0.47472 -0.27398,-0.0487 -0.39136,-0.16724 -0.50047,-0.50552 -0.11943,-0.37026 -0.20912,-0.44836 -0.55293,-0.48151 -0.31318,-0.0302 -0.41037,-0.0994 -0.41037,-0.29241 0,-0.4543 -0.24072,-0.74131 -0.62174,-0.74131 -0.30986,0 -0.37159,-0.0602 -0.44093,-0.42975 -0.0809,-0.43123 -0.26477,-0.58041 -0.71542,-0.58041 -0.16061,0 -0.24222,-0.0879 -0.24222,-0.26083 0,-0.469 -0.23784,-0.74932 -0.63578,-0.74932 -0.32584,0 -0.37437,-0.0458 -0.37437,-0.35355 0,-0.44869 -0.20791,-0.6566 -0.6566,-0.6566 -0.30304,0 -0.35355,-0.0505 -0.35355,-0.35355 0,-0.44869 -0.20791,-0.6566 -0.6566,-0.6566 -0.30305,0 -0.35355,-0.0505 -0.35355,-0.35356 0,-0.44868 -0.20791,-0.6566 -0.6566,-0.6566 -0.30773,0 -0.35356,-0.0485 -0.35356,-0.37436 0,-0.39563 -0.28001,-0.63579 -0.74131,-0.63579 -0.19296,0 -0.26221,-0.0972 -0.2924,-0.41037 -0.0331,-0.34381 -0.11126,-0.4335 -0.48151,-0.55292 -0.33829,-0.10911 -0.45686,-0.2265 -0.50552,-0.50048 -0.0483,-0.27217 -0.16209,-0.38618 -0.47473,-0.47585 -0.31005,-0.0889 -0.43593,-0.21359 -0.51198,-0.50705 -0.0752,-0.29008 -0.20233,-0.41825 -0.49952,-0.50349 -0.37512,-0.10758 -0.40368,-0.15858 -0.4834,-0.86315 -0.0879,-0.77678 -0.28901,-1.11118 -0.66833,-1.11118 -0.15069,0 -0.25855,-0.15101 -0.33822,-0.47351 -0.10196,-0.41272 -0.16966,-0.47859 -0.52735,-0.51308 -0.31318,-0.0302 -0.41037,-0.0994 -0.41037,-0.2924 0,-0.4613 -0.24016,-0.74132 -0.63579,-0.74132 -0.29416,0 -0.37436,-0.0559 -0.37436,-0.26084 0,-0.46899 -0.23785,-0.74931 -0.63579,-0.74931 -0.33267,0 -0.37437,-0.0427 -0.37437,-0.38286 0,-0.98209 -0.65536,-1.63744 -1.63744,-1.63744 -0.34021,0 -0.38286,-0.0417 -0.38286,-0.37437 0,-0.39794 -0.28032,-0.63579 -0.74932,-0.63579 -0.20495,0 -0.26083,-0.0802 -0.26083,-0.37436 0,-0.39794 -0.28032,-0.63579 -0.74932,-0.63579 -0.20495,0 -0.26084,-0.0802 -0.26084,-0.37436 0,-0.39795 -0.28031,-0.63579 -0.74931,-0.63579 -0.20495,0 -0.26084,-0.0802 -0.26084,-0.37437 0,-0.39563 -0.28001,-0.63578 -0.74131,-0.63578 -0.19188,0 -0.26238,-0.0972 -0.29241,-0.4031 -0.0329,-0.33508 -0.10833,-0.4208 -0.44707,-0.50795 -0.31458,-0.0809 -0.43121,-0.19632 -0.51146,-0.50597 -0.0797,-0.3076 -0.19747,-0.42537 -0.50507,-0.50508 -0.30939,-0.0802 -0.42528,-0.19715 -0.5067,-0.51145 -0.0813,-0.31387 -0.18822,-0.42202 -0.46524,-0.47064 -0.27465,-0.0482 -0.39463,-0.16761 -0.50754,-0.50508 -0.12218,-0.36518 -0.21733,-0.44881 -0.54778,-0.48151 -0.30272,-0.03 -0.39991,-0.10102 -0.39991,-0.29241 0,-0.46129 -0.24016,-0.74131 -0.63579,-0.74131 -0.37383,0 -0.37437,-0.001 -0.37437,-0.76591 0,-0.95531 -0.14817,-1.25439 -0.62145,-1.25439 l -0.36004,0 -0.0481,-1.751 c -0.0516,-1.87771 -0.14273,-2.16334 -0.69051,-2.16334 l -0.30021,0 0,-3.2913 c 0,-2.02731 -0.0502,-3.3851 -0.13071,-3.53554 -0.0841,-0.15715 -0.26419,-0.24423 -0.50508,-0.24423 l -0.37436,0 0,-1.27099 c 0,-1.46983 -0.10467,-1.75947 -0.63579,-1.75947 l -0.37437,0 0,-0.87944 c 0,-0.93396 -0.13489,-1.14086 -0.74378,-1.14086 -0.22934,0 -0.25908,-0.0931 -0.2924,-0.91546 l -0.0371,-0.91545 -0.47351,-0.11697 c -0.42986,-0.10619 -0.47351,-0.15603 -0.47351,-0.5407 0,-0.65603 -0.30139,-1.25269 -0.68089,-1.34794 -0.23081,-0.0579 -0.32984,-0.16687 -0.3312,-0.36434 -0.003,-0.40472 -0.15784,-0.59446 -0.57704,-0.70607 -0.29619,-0.0789 -0.38037,-0.18258 -0.43118,-0.53129 -0.0551,-0.37796 -0.11415,-0.43825 -0.46266,-0.47205 -0.34537,-0.0335 -0.41439,-0.10199 -0.50909,-0.50508 -0.0943,-0.40146 -0.16447,-0.4717 -0.50435,-0.50502 -0.3806,-0.0373 -0.39783,-0.0649 -0.47919,-0.76584 -0.1,-0.86143 -0.15683,-0.97151 -0.58608,-1.1347 -0.24086,-0.0916 -0.34559,-0.2417 -0.39924,-0.57228 -0.0723,-0.44545 -0.16028,-0.59229 -0.67391,-1.12464 -0.18853,-0.1954 -0.29063,-0.50675 -0.3431,-1.04623 -0.0998,-1.02596 -0.17705,-1.18899 -0.60401,-1.27438 -0.29609,-0.0592 -0.36286,-0.13772 -0.36286,-0.42658 0,-0.43539 -0.29557,-0.75085 -0.7035,-0.75085 -0.29177,0 -0.30675,-0.0383 -0.30859,-0.78918 -0.002,-0.93522 -0.0589,-1.04523 -0.59784,-1.16216 -0.40597,-0.0881 -0.41037,-0.097 -0.41037,-0.82629 0,-1.00197 -0.069,-1.13671 -0.58173,-1.13671 l -0.42843,0 0,-0.85863 c 0,-0.9497 -0.11981,-1.16168 -0.6566,-1.16168 -0.30304,0 -0.35355,-0.0505 -0.35355,-0.35355 0,-0.44869 -0.20791,-0.6566 -0.6566,-0.6566 -0.35256,0 -0.35355,-0.002 -0.35355,-0.85863 0,-0.9497 -0.11982,-1.16168 -0.6566,-1.16168 -0.30305,0 -0.35356,-0.0505 -0.35356,-0.35355 0,-0.19445 -0.0682,-0.42174 -0.15152,-0.50508 -0.0833,-0.0833 -0.31062,-0.15152 -0.50507,-0.15152 -0.34488,0 -0.35356,-0.0173 -0.35356,-0.70278 0,-0.8586 -0.15991,-1.19125 -0.57265,-1.19125 -0.19247,0 -0.31123,-0.0723 -0.31123,-0.18941 0,-0.168 5.04375,-0.1894 44.63611,-0.1894 l 44.63612,0 0,45.44634 0,45.44634 -0.34724,0.12683 -0.34724,0.12682 0.34724,0.01 0.34724,0.01 0,1.06819 0,1.06818 -1.04172,0.0367 -1.04172,0.0367 -0.11841,0.40185 c -0.13567,0.46039 -0.33613,0.54099 -1.35156,0.54345 -0.67205,0.002 -0.71728,-0.0179 -0.79934,-0.34481 l 0,1e-5 z m -13.07238,-7.0267 c 0,-0.0273 -0.0882,-0.0835 -0.19596,-0.12482 -0.11237,-0.0431 -0.16306,-0.022 -0.11882,0.0496 0.0741,0.11999 0.31478,0.17747 0.31478,0.0752 z m -14.39467,-9.98876 c -0.0865,-0.10418 -0.21402,-0.18941 -0.28347,-0.18941 -0.0704,0 -0.0568,0.0837 0.0309,0.18941 0.0865,0.10417 0.21401,0.1894 0.28346,0.1894 0.0704,0 0.0568,-0.0838 -0.0309,-0.1894 z m -1.6415,-1.33189 c -0.31252,-0.27698 -0.83811,-0.73515 -1.16799,-1.01814 l -0.59978,-0.51454 0,0.36531 c 0,0.46077 0.20477,0.66835 0.65931,0.66835 0.26262,0 0.39623,0.0877 0.50833,0.33376 0.13605,0.29861 0.70722,0.66457 1.04207,0.66769 0.0695,6.3e-4 -0.12943,-0.22545 -0.44194,-0.50243 z m -1.96851,-1.667 c -0.15293,-0.2701 -0.59577,-0.72605 -0.70515,-0.72605 -0.15996,0 -0.12373,0.56137 0.0473,0.73236 0.20777,0.20777 0.77603,0.20231 0.65789,-0.006 z m -1.17064,-0.98279 c -0.34991,-0.29151 -0.67191,-0.32889 -0.57115,-0.0663 0.061,0.15888 0.30047,0.25612 0.74297,0.30166 0.0695,0.007 -0.008,-0.0988 -0.17182,-0.23534 z m -2.03693,-1.36467 c -0.39069,-0.48617 -1.29365,-1.28278 -1.45403,-1.28278 -0.0434,0 -0.0609,0.15297 -0.039,0.33994 0.0309,0.26319 0.13196,0.36362 0.44746,0.44481 0.31638,0.0814 0.43111,0.19599 0.51307,0.51238 0.0817,0.31521 0.18956,0.42361 0.47638,0.47861 0.20394,0.0391 0.39072,0.0571 0.41505,0.0399 0.0243,-0.0171 -0.1372,-0.25695 -0.35896,-0.5329 z m -1.95813,-1.72864 c -0.4268,-0.34985 -0.56821,-0.38658 -0.56821,-0.1476 0,0.26258 0.27692,0.46756 0.62504,0.46265 l 0.32198,-0.005 -0.37881,-0.3105 0,0 z m -1.07328,-0.74925 c 0,-0.0323 -0.12785,-0.12682 -0.28411,-0.21008 -0.25761,-0.13727 -0.26795,-0.1318 -0.11081,0.0587 0.16135,0.1956 0.39492,0.28513 0.39492,0.15139 z m -2.23168,-2.37199 c -0.17152,-0.32308 -0.22815,-0.36208 -0.26621,-0.18334 -0.0503,0.23643 0.17232,0.59371 0.37002,0.59371 0.0627,0 0.016,-0.18467 -0.10381,-0.41037 z m -0.67721,-0.98518 c -0.3464,-0.48648 -2.39539,-2.51879 -2.53945,-2.51879 -0.16244,0 -0.12881,0.55953 0.044,0.73236 0.0833,0.0833 0.31062,0.15153 0.50508,0.15153 0.30304,0 0.35355,0.0505 0.35355,0.35355 0,0.19445 0.0682,0.42174 0.15152,0.50508 0.0833,0.0833 0.31063,0.15152 0.50508,0.15152 0.30305,0 0.35355,0.0505 0.35355,0.35355 0,0.43223 0.20574,0.6566 0.60207,0.6566 l 0.29901,0 -0.27443,-0.3854 z m -3.08889,-2.96464 c -0.4476,-0.3669 -0.59064,-0.39402 -0.47876,-0.0908 0.10483,0.28412 0.28914,0.40716 0.60503,0.4039 0.21908,-0.002 0.20235,-0.0438 -0.12627,-0.31311 z m -13.19512,-14.01196 c -0.0892,-0.10752 -0.19067,-0.16709 -0.22539,-0.13237 -0.0347,0.0347 0.01,0.15111 0.0991,0.25864 0.0892,0.10753 0.19067,0.1671 0.22539,0.13237 0.0347,-0.0347 -0.01,-0.15111 -0.0991,-0.25864 z m -0.74628,-0.79956 c -0.15394,-0.28764 -0.50114,-0.58362 -0.58557,-0.49919 -0.17973,0.17972 0.23544,0.6252 0.67338,0.72254 0.0198,0.004 -0.0197,-0.0961 -0.0878,-0.22335 z m -0.89921,-0.8735 c -0.006,-0.15084 -0.63369,-0.82493 -0.70311,-0.75552 -0.12833,0.12833 0.10702,0.71199 0.30867,0.76548 0.34242,0.0908 0.39863,0.0894 0.39444,-0.01 z m -0.87989,-0.981 c 0,-0.0361 -0.55401,-0.73256 -1.23113,-1.54778 -0.67711,-0.81523 -1.53655,-1.89609 -1.90985,-2.40192 -0.37331,-0.50583 -0.69786,-0.90057 -0.72123,-0.8772 -0.0234,0.0234 -0.002,0.40926 0.0474,0.85754 0.086,0.78007 0.10729,0.82018 0.49567,0.93457 0.30913,0.091 0.42571,0.21137 0.48938,0.50508 0.0944,0.43557 0.24519,0.57022 0.64159,0.57302 0.20613,0.001 0.29615,0.10367 0.36311,0.41231 0.0995,0.45864 0.24617,0.595 0.64303,0.59784 0.20707,0.001 0.28901,0.10303 0.35137,0.43541 0.0754,0.40219 0.21605,0.51964 0.67283,0.56203 0.0868,0.008 0.15784,-0.0148 0.15784,-0.0509 z m -4.21607,-6.39914 c -0.0444,-0.22208 -0.17936,-0.5488 -0.29989,-0.72605 l -0.21913,-0.32227 -0.0401,0.56363 c -0.0302,0.42442 0.0147,0.60375 0.18197,0.72605 0.35604,0.26034 0.46376,0.19141 0.3772,-0.24136 z m -9.16469,-21.93882 c -0.19086,-0.35663 -0.38257,-0.43771 -0.38257,-0.1618 0,0.28281 0.10428,0.40731 0.34116,0.40731 0.13202,0 0.14179,-0.0579 0.0414,-0.24551 z m -2.02407,-3.78765 c 0,-0.14898 -0.24627,-0.30835 -0.33672,-0.2179 -0.0904,0.0905 0.0689,0.33671 0.2179,0.33671 0.0653,0 0.11882,-0.0535 0.11882,-0.11881 z m -5.28015,-9.25245 c -0.0906,-0.0906 -0.14942,-0.0981 -0.14942,-0.019 0,0.0718 0.0379,0.16836 0.0842,0.21466 0.0463,0.0463 0.11354,0.0548 0.14942,0.0189 0.0359,-0.0359 -0.002,-0.13247 -0.0842,-0.21465 z"
       id="path4376"
       inkscape:connector-curvature="0" />
    <path
       style="opacity:0;fill:#008900;fill-opacity:0.29050282"
       d="m -40.496483,768.55348 c -1.796819,-2.90732 -1.188121,-32.11953 1.061792,-50.95557 1.128158,-9.44492 1.965918,-19.9 1.861711,-23.2335 -0.151927,-4.85637 0.24777,-5.45865 2.010708,-3.03046 1.691763,2.33016 1.934503,1.48995 1.050377,-3.63597 -0.648295,-3.75867 -0.35327,-6.17413 0.676398,-5.53775 3.099148,1.91537 0.690096,-20.66294 -2.724906,-25.53854 -1.761525,-2.51493 -3.21669,-6.41586 -3.233701,-8.66876 -0.02606,-3.43969 -0.370645,-3.61049 -2.150655,-1.06569 -1.604284,2.29357 -1.94325,1.20721 -1.39401,-4.46761 0.399131,-4.12394 0.283711,-7.05607 -0.256518,-6.51586 -0.54021,0.54023 -2.004648,-1.99505 -3.254308,-5.63391 -1.887228,-5.49541 -1.637417,-7.91163 1.474702,-14.26408 3.175798,-6.48241 6.503382,-31.29281 3.839771,-28.62918 -0.493823,0.49381 -1.919532,-1.14234 -3.168262,-3.63588 -1.281945,-2.55985 -4.174496,-4.56005 -6.643855,-4.59419 -4.816063,-0.0667 -17.695892,-15.88689 -15.640999,-19.21179 0.659771,-1.06751 0.236779,-1.94093 -0.939968,-1.94093 -1.22978,0 -2.139543,-4.43849 -2.139543,-10.43825 0,-5.74102 0.562796,-9.87543 1.25067,-9.18758 0.687853,0.68788 2.57108,-0.0697 4.18492,-1.68358 3.464177,-3.46417 8.706545,-3.88434 8.706545,-0.69779 0,1.23004 1.28847,1.74203 2.863258,1.13771 1.574787,-0.60429 3.392314,0.27998 4.038953,1.96505 0.874651,2.27931 2.857297,2.72531 7.743325,1.74191 12.423664,-2.50051 13.570692,-3.31413 17.639425,-12.51217 3.429528,-7.75305 4.080531,-13.52845 4.080531,-36.20114 0,-19.11314 -0.875721,-29.19668 -3.004335,-34.59345 -1.652387,-4.18936 -3.278389,-9.4353 -3.613336,-11.65764 -0.334946,-2.22234 -2.846832,-6.41439 -5.581961,-9.31567 -5.669724,-6.01412 -21.013093,-14.37687 -22.905553,-12.48441 -0.693166,0.69316 -1.260307,-0.35218 -1.260307,-2.32301 0,-2.37887 1.034013,-3.18655 3.076279,-2.40285 5.10529,1.95909 11.655059,-6.23727 10.020834,-12.54001 -0.767352,-2.95943 -1.59196,-6.58989 -1.832477,-8.06771 -0.240518,-1.47781 -1.737038,-3.50945 -3.325584,-4.51475 -1.588566,-1.00529 -1.979151,-1.87064 -0.867984,-1.92299 1.111168,-0.0523 0.599445,-1.20271 -1.137169,-2.55631 -1.736614,-1.35363 -4.88734,-5.41583 -7.001589,-9.02713 -2.11425,-3.61129 -4.482876,-6.56599 -5.263582,-6.56599 -0.780706,0 -2.85754,-0.55183 -4.615165,-1.22631 -2.097056,-0.8047 -3.195698,-0.1101 -3.195698,2.02031 0,1.78565 -0.909137,3.24661 -2.020305,3.24661 -1.111168,0 -1.793021,1.01203 -1.515229,2.24898 0.982777,4.37606 -8.382185,3.80816 -13.365833,-0.81052 -3.74605,-3.47174 -4.699998,-6.02086 -3.960081,-10.58208 0.751937,-4.63529 0.483883,-5.31601 -1.172808,-2.97821 -1.696147,2.39349 -2.204314,1.54424 -2.417719,-4.04061 -0.148694,-3.88909 -0.171524,-7.72577 -0.05111,-8.52597 0.120411,-0.8002 -1.615557,-2.43681 -3.857954,-3.63691 -2.242398,-1.20009 -3.456578,-3.18599 -2.698198,-4.41308 0.7784,-1.2595 0.46283,-1.66495 -0.72464,-0.93104 -1.15697,0.71503 -3.12148,0.0735 -4.3656,-1.42552 -1.34587,-1.62168 -4.5071,-2.31907 -7.80506,-1.72189 -3.04867,0.55205 -4.86694,0.27915 -4.04063,-0.60647 0.8263,-0.88563 -0.22678,-2.82136 -2.34021,-4.30166 -2.3966,-1.67865 -3.45451,-4.1754 -2.81133,-6.63494 0.70072,-2.67959 -1.30118,-6.34513 -6.2461,-11.43675 -6.47053,-6.66248 -8.30868,-10.4431 -7.51658,-15.4597 0.13152,-0.83337 -0.54326,-1.51522 -1.49965,-1.51522 -0.9564,0 -2.30059,-4.74263 -2.98711,-10.53917 -0.68652,-5.79656 -4.4497,-17.10471 -8.36263,-25.12924 -3.91284,-8.02453 -7.11434,-15.93546 -7.11434,-17.57987 0,-7.18091 -1.95947,-8.37814 -12.5139,-7.64592 -8.24747,0.57215 -11.00631,-0.0329 -13.07989,-2.86869 -3.18098,-4.35027 -24.89316,-6.35687 -24.94477,-2.30537 -0.0207,1.6285 -0.61193,1.51137 -1.79443,-0.35558 -0.96992,-1.53131 -2.67901,-2.21837 -3.79798,-1.52682 -1.11896,0.69157 -2.59214,-0.19577 -3.27372,-1.97202 -0.92497,-2.41043 -3.28422,-3.03438 -9.30307,-2.46039 -4.43511,0.42295 -8.06383,0.0917 -8.06383,-0.7362 0,-0.82786 -1.35604,-0.98484 -3.01343,-0.34885 -1.7181,0.65929 -3.54596,-0.2314 -4.25231,-2.0721 -0.68138,-1.77567 -1.92594,-2.80384 -2.76569,-2.28485 -0.83975,0.519 -4.60832,-2.09774 -8.3746,-5.81496 -3.76628,-3.71722 -12.5518,-11.47155 -19.52337,-17.23183 -6.97157,-5.76029 -12.19045,-11.25821 -11.5975,-12.21761 0.59294,-0.9594 -0.97615,-3.40815 -3.48686,-5.44169 -2.51071,-2.03352 -4.87398,-5.47077 -5.2517,-7.63835 -1.08953,-6.25238 -7.17306,-19.29246 -9.00043,-19.29246 -0.91462,0 -1.10107,-0.90914 -0.41433,-2.02031 0.68674,-1.11116 0.34709,-2.0203 -0.75478,-2.0203 -1.10186,0 -2.63749,-1.99786 -3.41249,-4.43968 -0.775,-2.44182 -5.15467,-8.46102 -9.73259,-13.37602 -4.57792,-4.91498 -8.10195,-9.71845 -7.83116,-10.67438 0.27078,-0.95593 -1.76697,-3.21841 -4.52834,-5.02771 -2.76137,-1.80933 -4.54845,-4.05376 -3.97129,-4.98763 0.57717,-0.93387 -0.81981,-2.69832 -3.10439,-3.92099 -2.28458,-1.22267 -3.67897,-2.9913 -3.09864,-3.93028 0.58032,-0.93898 -0.25319,-2.20928 -1.85226,-2.82291 -1.59906,-0.61361 -3.52274,-4.572719 -4.27484,-8.797985 -1.45421,-8.16969 -7.72922,-20.068337 -11.19225,-21.222679 -1.14525,-0.381757 65.57849,-68.8524214 148.27499,-152.157051 132.47669,-133.450885 150.744935,-151.141235 153.617061,-148.757575 1.792879,1.48796 3.06157,3.42652 2.819295,4.30791 -0.65971,2.40007 30.731609,34.70204 32.600956,33.54672 2.380243,-1.47107 26.9432538,23.9863 25.0990789,26.01296 -0.8645895,0.95013 -0.5833025,1.16484 0.6250824,0.47713 1.2084051,-0.68771 5.7113017,2.34851 10.0064697,6.74717 4.295169,4.39865 6.974094,7.99754 5.953173,7.99754 -1.020941,0 3.040438,4.95826 9.025268,11.01836 5.984811,6.0601 11.600511,10.57398 12.479324,10.03085 1.998082,-1.23489 13.067717,11.07948 12.311497,13.6959 -0.305309,1.05639 0.232476,1.43395 1.195111,0.83901 2.037013,-1.25893 14.415059,10.92011 14.140701,13.913355 -0.101823,1.111168 1.832942,3.050463 4.299573,4.309544 2.466611,1.25908 8.273998,5.885613 12.905305,10.281185 37.250245,35.354221 47.512445,45.886098 46.425215,47.645265 -0.69947,1.131773 -0.24488,1.404667 1.02872,0.617542 2.69394,-1.664943 18.68926,12.489743 26.99885,23.892021 9.67391,13.2743542 25.8368,29.694343 27.94614,28.390701 1.09235,-0.675105 1.98612,0.243528 1.98612,2.041438 0,1.79791 0.74149,2.810648 1.64776,2.250559 0.90627,-0.560109 17.48828,14.841565 36.84891,34.225948 19.36064,19.384383 34.41773,35.244323 33.46021,35.244323 -0.95752,0 -0.61749,1.353706 0.75564,3.008214 1.37314,1.654509 3.22759,2.556434 4.12103,2.004264 0.89344,-0.55219 15.96094,13.952771 33.48333,32.233221 17.52239,18.28045 32.44755,32.87337 33.167,32.42872 1.72874,-1.06841 58.54663,56.25795 58.54663,59.07057 0,1.19728 3.19236,4.76655 7.09416,7.9317 20.44225,16.58287 47.45024,42.20987 47.42314,44.9983 -0.0238,2.45465 -0.41287,2.5808 -1.70012,0.5513 -1.19598,-1.88557 -6.78409,2.98284 -19.71127,17.17259 -9.92315,10.89231 -21.32735,23.89534 -25.34267,28.8956 -8.48813,10.57021 -62.29748,66.55339 -139.93815,145.59142 -30.08683,30.62833 -66.5221,67.85092 -80.96728,82.71687 -14.44518,14.86593 -26.94881,26.85274 -27.78584,26.63734 -2.35089,-0.60496 -116.722563,115.68976 -114.532229,116.45798 1.06262,0.37271 1.4427,1.46941 0.844609,2.43716 -0.598112,0.96772 -2.292117,1.29723 -3.764516,0.73221 -1.602849,-0.61506 -17.544814,14.62049 -39.7294204,37.96897 -20.3787976,21.44792 -37.2367076,39.28401 -37.4620326,39.63572 -0.225324,0.35172 -0.921744,-0.1891 -1.547594,-1.2017 z M 129.39445,473.1216 c 3.6378,-15.7111 11.87917,-64.07783 14.88754,-87.37148 l 2.54563,-19.71067 4.18431,3.70278 c 2.30139,2.03651 8.65861,6.58791 14.12715,10.11421 11.58804,7.47232 21.03849,8.32028 26.42268,2.37083 2.76291,-3.05298 6.22248,-4.04061 14.15377,-4.04061 5.77341,0 13.13287,-0.80897 16.35441,-1.79771 3.22152,-0.98876 13.58498,-2.8693 23.0299,-4.179 25.81338,-3.57948 28.28428,-4.20868 28.28428,-7.20251 0,-1.51616 -5.3825,-5.17216 -11.9611,-8.12445 -13.99722,-6.2816 -19.69614,-11.75 -23.39253,-22.44642 l -2.68431,-7.76769 8.58698,-1.06636 c 9.54414,-1.18521 14.3199,-3.88468 28.34027,-16.01922 5.25765,-4.55047 13.11324,-10.08664 17.45685,-12.30259 4.34362,-2.21593 7.8975,-4.90118 7.8975,-5.96717 0,-1.06599 -3.5064,-3.72702 -7.79202,-5.91337 -4.70349,-2.39956 -8.80073,-6.41047 -10.33693,-10.11919 -2.32101,-5.60339 -1.90203,-7.49777 4.76156,-21.52938 4.01855,-8.46196 7.30647,-17.38587 7.30647,-19.83091 0,-5.26627 9.35361,-20.39065 16.88793,-27.30705 5.16425,-4.74072 7.11683,-10.25444 3.6314,-10.25444 -2.09417,0 -24.05985,7.38527 -29.6107,9.95566 -4.95585,2.29487 -20.49317,4.47879 -35.35534,4.96955 -6.83627,0.22575 -15.77577,2.39624 -23.23351,5.64109 -19.69276,8.56824 -26.73577,9.98801 -30.56281,6.16096 -3.5161,-3.51607 -3.46058,-5.11135 1.8311,-52.61557 1.40044,-12.57181 2.03372,-23.68711 1.40735,-24.70063 -0.67446,-1.09129 -4.362,-0.95284 -9.0425,0.33951 -14.98503,4.13756 -22.17653,1.51644 -36.27614,-13.22169 -9.5002,-9.93044 -13.9,-16.50823 -17.34432,-25.93003 -6.11902,-16.738466 -8.00438,-19.121153 -11.42672,-14.440854 -1.44741,1.979475 -2.63167,6.502878 -2.63167,10.052004 0,9.70424 -3.8389,16.89248 -16.89183,31.6295 -13.088953,14.77768 -20.128423,18.77849 -29.441747,16.73295 -5.618246,-1.23398 -6.194356,-0.89257 -6.194356,3.67071 0,2.76718 4.092512,13.52176 9.094484,23.8991 5.001972,10.37734 9.413187,21.69182 9.802682,25.14326 0.389515,3.45145 1.375505,7.35511 2.191122,8.67479 2.157383,3.49072 -2.622477,8.28335 -8.26129,8.28335 -2.673551,0 -10.263978,-2.72741 -16.867608,-6.06091 -6.60363,-3.33351 -14.847303,-6.06092 -18.319278,-6.06092 -12.87199,0 -46.2240958,-13.48618 -55.320843,-22.36942 -2.130512,-2.08049 -9.876382,-2.5371 -11.722456,-0.69103 -0.650781,0.65076 1.561453,7.6331 4.916069,15.51631 3.392738,7.97283 5.929939,17.30933 5.717665,21.04014 -0.772221,13.57229 -0.405273,18.00217 2.1836064,26.36078 3.5620807,11.50077 1.0347801,17.84105 -10.2872724,25.80766 -5.000255,3.51836 -9.091373,7.35573 -9.091373,8.52749 0,2.19593 18.276771,15.28991 49.063816,35.1507 16.628263,10.72693 17.642557,11.78989 18.260003,19.13601 0.594131,7.06888 -0.234901,8.58464 -9.091373,16.6223 -5.359809,4.86427 -13.092709,10.559 -17.18419,12.65493 -8.3222024,4.26321 -11.0421593,7.45464 -8.4463299,9.9104 2.017315,1.90844 55.5151759,5.0206 76.7645219,4.46564 10.66806,-0.2786 15.062304,0.40704 16.914904,2.63927 5.179783,6.24125 22.436923,1.54125 31.222053,-8.50336 l 4.94468,-5.65356 -0.89089,7.07106 c -4.02427,31.94099 -14.82017,101.4238 -15.9314,102.53503 -1.94002,1.94 3.32669,6.76912 6.6785,6.12363 2.01396,-0.38786 4.11162,-4.66361 5.74165,-11.70341 z m -293.91146,-235.674 c -1.38896,-0.56045 -3.66181,-0.56045 -5.05076,0 -1.38896,0.56045 -0.25254,1.01902 2.52538,1.01902 2.77792,0 3.91434,-0.45857 2.52538,-1.01902 z"
       id="path4378"
       inkscape:connector-curvature="0" />
    <path
       style="opacity:0;fill:#008900;fill-opacity:0.29050281;filter:url(#filter5034)"
       d="m -40.496483,768.55348 c -1.796819,-2.90732 -1.188121,-32.11953 1.061792,-50.95557 1.128158,-9.44492 1.965918,-19.9 1.861711,-23.2335 -0.151927,-4.85637 0.24777,-5.45865 2.010708,-3.03046 1.691763,2.33016 1.934503,1.48995 1.050377,-3.63597 -0.648295,-3.75867 -0.35327,-6.17413 0.676398,-5.53775 3.099148,1.91537 0.690096,-20.66294 -2.724906,-25.53854 -1.761525,-2.51493 -3.21669,-6.41586 -3.233701,-8.66876 -0.02606,-3.43969 -0.370645,-3.61049 -2.150655,-1.06569 -1.604284,2.29357 -1.94325,1.20721 -1.39401,-4.46761 0.399131,-4.12394 0.283711,-7.05607 -0.256518,-6.51586 -0.54021,0.54023 -2.004648,-1.99505 -3.254308,-5.63391 -1.887228,-5.49541 -1.637417,-7.91163 1.474702,-14.26408 3.175798,-6.48241 6.503382,-31.29281 3.839771,-28.62918 -0.493823,0.49381 -1.919532,-1.14234 -3.168262,-3.63588 -1.281945,-2.55985 -4.174496,-4.56005 -6.643855,-4.59419 -4.816063,-0.0667 -17.695892,-15.88689 -15.640999,-19.21179 0.659771,-1.06751 0.236779,-1.94093 -0.939968,-1.94093 -1.22978,0 -2.139543,-4.43849 -2.139543,-10.43825 0,-5.74102 0.562796,-9.87543 1.25067,-9.18758 0.687853,0.68788 2.57108,-0.0697 4.18492,-1.68358 3.464177,-3.46417 8.706545,-3.88434 8.706545,-0.69779 0,1.23004 1.28847,1.74203 2.863258,1.13771 1.574787,-0.60429 3.392314,0.27998 4.038953,1.96505 0.874651,2.27931 2.857297,2.72531 7.743325,1.74191 12.423664,-2.50051 13.570692,-3.31413 17.639425,-12.51217 3.429528,-7.75305 4.080531,-13.52845 4.080531,-36.20114 0,-19.11314 -0.875721,-29.19668 -3.004335,-34.59345 -1.652387,-4.18936 -3.278389,-9.4353 -3.613336,-11.65764 -0.334946,-2.22234 -2.846832,-6.41439 -5.581961,-9.31567 -5.669724,-6.01412 -21.013093,-14.37687 -22.905553,-12.48441 -0.693166,0.69316 -1.260307,-0.35218 -1.260307,-2.32301 0,-2.37887 1.034013,-3.18655 3.076279,-2.40285 5.10529,1.95909 11.655059,-6.23727 10.020834,-12.54001 -0.767352,-2.95943 -1.59196,-6.58989 -1.832477,-8.06771 -0.240518,-1.47781 -1.737038,-3.50945 -3.325584,-4.51475 -1.588566,-1.00529 -1.979151,-1.87064 -0.867984,-1.92299 1.111168,-0.0523 0.599445,-1.20271 -1.137169,-2.55631 -1.736614,-1.35363 -4.88734,-5.41583 -7.001589,-9.02713 -2.11425,-3.61129 -4.482876,-6.56599 -5.263582,-6.56599 -3.253592,-14.2333 -8.909506,-21.93984 -9.161376,-6.97145 0,1.78565 0.441376,11.01206 -0.669792,11.01206 -1.111168,0 -1.793021,1.01203 -1.515229,2.24898 0.982777,4.37606 -8.382185,3.80816 -13.365833,-0.81052 -3.74605,-3.47174 -4.699998,-6.02086 -3.960081,-10.58208 0.751937,-4.63529 0.483883,-5.31601 -1.172808,-2.97821 -1.696147,2.39349 -2.204314,1.54424 -2.417719,-4.04061 -0.148694,-3.88909 -0.171524,-7.72577 -0.05111,-8.52597 0.120411,-0.8002 -1.615557,-2.43681 -3.857954,-3.63691 -2.242402,-1.20009 -3.456582,-3.18599 -2.698202,-4.41308 0.7784,-1.2595 0.46283,-1.66495 -0.72464,-0.93104 -1.15697,0.71503 -3.12148,0.0735 -4.3656,-1.42552 -1.34587,-1.62168 -4.5071,-2.31907 -7.80506,-1.72189 -3.04867,0.55205 -4.86694,0.27915 -4.04063,-0.60647 0.8263,-0.88563 -0.22678,-2.82136 -2.34021,-4.30166 -2.3966,-1.67865 -3.45451,-4.1754 -2.81133,-6.63494 0.70072,-2.67959 -1.30118,-6.34513 -6.2461,-11.43675 -6.47053,-6.66248 -8.30868,-10.4431 -7.51658,-15.4597 0.13152,-0.83337 -0.54326,-1.51522 -1.49965,-1.51522 -0.9564,0 -2.30059,-4.74263 -2.98711,-10.53917 -0.68652,-5.79656 -4.4497,-17.10471 -8.36263,-25.12924 -3.91284,-8.02453 -7.11434,-15.93546 -7.11434,-17.57987 0,-7.18091 -1.95947,-8.37814 -12.5139,-7.64592 -8.24747,0.57215 -11.00631,-0.0329 -13.07989,-2.86869 -3.18098,-4.35027 -24.89316,-6.35687 -24.94477,-2.30537 -0.0207,1.6285 -0.61193,1.51137 -1.79443,-0.35558 -0.96992,-1.53131 -2.67901,-2.21837 -3.79798,-1.52682 -1.11896,0.69157 -2.59214,-0.19577 -3.27372,-1.97202 -0.92497,-2.41043 -3.28422,-3.03438 -9.30307,-2.46039 -4.43511,0.42295 -8.06383,0.0917 -8.06383,-0.7362 0,-0.82786 -1.35604,-0.98484 -3.01343,-0.34885 -1.7181,0.65929 -3.54596,-0.2314 -4.25231,-2.0721 -0.68138,-1.77567 -1.92594,-2.80384 -2.76569,-2.28485 -0.83975,0.519 -4.60832,-2.09774 -8.3746,-5.81496 -3.76628,-3.71722 -12.5518,-11.47155 -19.52337,-17.23183 -6.97157,-5.76029 -12.19045,-11.25821 -11.5975,-12.21761 0.59294,-0.9594 -0.97615,-3.40815 -3.48686,-5.44169 -2.51071,-2.03352 -4.87398,-5.47077 -5.2517,-7.63835 -1.08953,-6.25238 -7.17306,-19.29246 -9.00043,-19.29246 -0.91462,0 -1.10107,-0.90914 -0.41433,-2.02031 0.68674,-1.11116 0.34709,-2.0203 -0.75478,-2.0203 -1.10186,0 -2.63749,-1.99786 -3.41249,-4.43968 -0.775,-2.44182 -5.15467,-8.46102 -9.73259,-13.37602 -4.57792,-4.91498 -8.10195,-9.71845 -7.83116,-10.67438 0.27078,-0.95593 -1.76697,-3.21841 -4.52834,-5.02771 -2.76137,-1.80933 -4.54845,-4.05376 -3.97129,-4.98763 0.57717,-0.93387 -0.81981,-2.69832 -3.10439,-3.92099 -2.28458,-1.22267 -3.67897,-2.9913 -3.09864,-3.93028 0.58032,-0.93898 -0.25319,-2.20928 -1.85226,-2.82291 -1.59906,-0.61361 -3.52274,-4.572719 -4.27484,-8.797985 -1.45421,-8.16969 -7.72922,-20.068337 -11.19225,-21.222679 -1.14525,-0.381757 65.57849,-68.8524214 148.27499,-152.157051 132.476694,-133.450885 150.744939,-151.141235 153.617065,-148.757575 1.792879,1.48796 3.06157,3.42652 2.819295,4.30791 91.416881,219.1975847 446.36596,287.1336 501.57439,494.85251 -0.0238,2.45465 -0.41287,2.5808 -1.70012,0.5513 -1.19598,-1.88557 -6.78409,2.98284 -19.71127,17.17259 -9.92315,10.89231 -21.32735,23.89534 -25.34267,28.8956 -8.48813,10.57021 -62.29748,66.55339 -139.93815,145.59142 -30.08683,30.62833 -66.5221,67.85092 -80.96728,82.71687 -14.44518,14.86593 -26.94881,26.85274 -27.78584,26.63734 -2.35089,-0.60496 -116.722559,115.68976 -114.532225,116.45798 1.06262,0.37271 1.4427,1.46941 0.844609,2.43716 -0.598112,0.96772 -2.292117,1.29723 -3.764516,0.73221 -1.602849,-0.61506 -17.544814,14.62049 -39.7294204,37.96897 -20.3787976,21.44792 -37.2367076,39.28401 -37.4620326,39.63572 -0.225324,0.35172 -0.921744,-0.1891 -1.547598,-1.2017 z M 129.39445,473.1216 c 3.6378,-15.7111 11.87917,-64.07783 14.88754,-87.37148 l 2.54563,-19.71067 4.18431,3.70278 c 2.30139,2.03651 8.65861,6.58791 14.12715,10.11421 11.58804,7.47232 21.03849,8.32028 26.42268,2.37083 2.76291,-3.05298 6.22248,-4.04061 14.15377,-4.04061 5.77341,0 13.13287,-0.80897 16.35441,-1.79771 3.22152,-0.98876 13.58498,-2.8693 23.0299,-4.179 25.81338,-3.57948 28.28428,-4.20868 28.28428,-7.20251 0,-1.51616 -5.3825,-5.17216 -11.9611,-8.12445 -13.99722,-6.2816 -19.69614,-11.75 -23.39253,-22.44642 l -2.68431,-7.76769 8.58698,-1.06636 c 9.54414,-1.18521 14.3199,-3.88468 28.34027,-16.01922 5.25765,-4.55047 13.11324,-10.08664 17.45685,-12.30259 4.34362,-2.21593 7.8975,-4.90118 7.8975,-5.96717 0,-1.06599 -3.5064,-3.72702 -7.79202,-5.91337 -4.70349,-2.39956 -8.80073,-6.41047 -10.33693,-10.11919 -2.32101,-5.60339 -1.90203,-7.49777 4.76156,-21.52938 4.01855,-8.46196 7.30647,-17.38587 7.30647,-19.83091 0,-5.26627 9.35361,-20.39065 16.88793,-27.30705 5.16425,-4.74072 7.11683,-10.25444 3.6314,-10.25444 -2.09417,0 -24.05985,7.38527 -29.6107,9.95566 -4.95585,2.29487 -20.49317,4.47879 -35.35534,4.96955 -6.83627,0.22575 -15.77577,2.39624 -23.23351,5.64109 -19.69276,8.56824 -26.73577,9.98801 -30.56281,6.16096 -3.5161,-3.51607 -3.46058,-5.11135 1.8311,-52.61557 1.40044,-12.57181 2.03372,-23.68711 1.40735,-24.70063 -0.67446,-1.09129 -4.362,-0.95284 -9.0425,0.33951 -14.98503,4.13756 -22.17653,1.51644 -36.27614,-13.22169 -9.5002,-9.93044 -13.9,-16.50823 -17.34432,-25.93003 -6.11902,-16.738466 -8.00438,-19.121153 -11.42672,-14.440854 -1.44741,1.979475 -2.63167,6.502878 -2.63167,10.052004 0,9.70424 -3.8389,16.89248 -16.89183,31.6295 -13.088953,14.77768 -20.128423,18.77849 -29.441747,16.73295 -5.618246,-1.23398 -6.194356,-0.89257 -6.194356,3.67071 0,2.76718 4.092512,13.52176 9.094484,23.8991 5.001972,10.37734 9.413187,21.69182 9.802682,25.14326 0.389515,3.45145 1.375505,7.35511 2.191122,8.67479 2.157383,3.49072 -2.622477,8.28335 -8.26129,8.28335 -2.673551,0 -10.263978,-2.72741 -16.867608,-6.06091 -6.60363,-3.33351 -14.847303,-6.06092 -18.319278,-6.06092 -12.87199,0 -46.2240958,-13.48618 -55.320843,-22.36942 -2.130512,-2.08049 -9.876382,-2.5371 -11.722456,-0.69103 -0.650781,0.65076 1.561453,7.6331 4.916069,15.51631 3.392738,7.97283 5.929939,17.30933 5.717665,21.04014 -0.772221,13.57229 -0.405273,18.00217 2.1836064,26.36078 3.5620807,11.50077 1.0347801,17.84105 -10.2872724,25.80766 -5.000255,3.51836 -9.091373,7.35573 -9.091373,8.52749 0,2.19593 18.276771,15.28991 49.063816,35.1507 16.628263,10.72693 17.642557,11.78989 18.260003,19.13601 0.594131,7.06888 -0.234901,8.58464 -9.091373,16.6223 -5.359809,4.86427 -13.092709,10.559 -17.18419,12.65493 -8.3222024,4.26321 -11.0421593,7.45464 -8.4463299,9.9104 2.017315,1.90844 55.5151759,5.0206 76.7645219,4.46564 10.66806,-0.2786 15.062304,0.40704 16.914904,2.63927 5.179783,6.24125 22.436923,1.54125 31.222053,-8.50336 l 4.94468,-5.65356 -0.89089,7.07106 c -4.02427,31.94099 -14.82017,101.4238 -15.9314,102.53503 -1.94002,1.94 3.32669,6.76912 6.6785,6.12363 2.01396,-0.38786 4.11162,-4.66361 5.74165,-11.70341 z m -293.91146,-235.674 c -1.38896,-0.56045 -3.66181,-0.56045 -5.05076,0 -1.38896,0.56045 -0.25254,1.01902 2.52538,1.01902 2.77792,0 3.91434,-0.45857 2.52538,-1.01902 z"
       id="path4380"
       inkscape:connector-curvature="0"
       sodipodi:nodetypes="cscsssscsscsscscssscsscssssssssssssscssccssssscsssccssssscsssssscsccsssssssssssssssssssssssssccssssssccssccsscssssssssscssssssssssssssscssssssssssssssscssssssssssssscssssssss" />
  </g>
</svg>
